<svg xmlns="http://www.w3.org/2000/svg" xmlns:xlink="http://www.w3.org/1999/xlink" width="0" height="0" style="position:absolute">
  <symbol id="cube" viewBox="0 0 24 24">
    <path d="M15,22.7H9c-5.4,0-7.8-2.3-7.8-7.8V9c0-5.4,2.3-7.8,7.8-7.8h6c5.4,0,7.8,2.3,7.8,7.8v6
      C22.8,20.4,20.4,22.7,15,22.7z M9,2.7C4.4,2.7,2.8,4.4,2.8,9v6c0,4.6,1.6,6.3,6.3,6.3h6c4.6,0,6.3-1.6,6.3-6.3V9
      c0-4.6-1.6-6.3-6.3-6.3H9z"/>
    <path d="M12,13.1c-0.1,0-0.3,0-0.4-0.1L6.3,9.9C6,9.7,5.8,9.2,6.1,8.9c0.2-0.4,0.7-0.5,1-0.3l4.9,2.9l4.9-2.8
      c0.4-0.2,0.8-0.1,1,0.3c0.2,0.4,0.1,0.8-0.3,1l-5.3,3C12.3,13,12.1,13.1,12,13.1z"/>
    <path d="M12,18.5c-0.4,0-0.8-0.3-0.8-0.8v-5.4c0-0.4,0.3-0.8,0.8-0.8s0.8,0.3,0.8,0.8v5.4C12.8,18.2,12.4,18.5,12,18.5z
      "/>
    <path d="M12,18.7c-0.6,0-1.1-0.1-1.6-0.4l-3.2-1.8c-1-0.5-1.7-1.8-1.7-2.9v-3.4c0-1.1,0.8-2.4,1.7-2.9l3.2-1.8
      c0.9-0.5,2.3-0.5,3.2,0l3.2,1.8c1,0.5,1.7,1.8,1.7,2.9v3.4c0,1.1-0.8,2.4-1.7,2.9l-3.2,1.8C13.2,18.6,12.6,18.7,12,18.7z M12,6.7
      c-0.3,0-0.7,0.1-0.9,0.2L7.9,8.7C7.4,9,7,9.7,7,10.3v3.4c0,0.6,0.4,1.3,0.9,1.6l3.2,1.8c0.5,0.3,1.3,0.3,1.8,0l3.2-1.8
      c0.5-0.3,0.9-1,0.9-1.6v-3.4c0-0.6-0.4-1.3-0.9-1.6l-3.2-1.8C12.7,6.8,12.3,6.7,12,6.7z"/>
  </symbol>  
  <symbol id="key" viewBox="0 0 24 24">
    <path d="M15,22.8H9c-5.4,0-7.8-2.3-7.8-7.8V9c0-5.4,2.3-7.8,7.8-7.8h6c5.4,0,7.8,2.3,7.8,7.8v6
      C22.8,20.4,20.4,22.8,15,22.8z M9,2.7C4.4,2.7,2.8,4.4,2.8,9v6c0,4.6,1.6,6.3,6.3,6.3h6c4.6,0,6.3-1.6,6.3-6.3V9
      c0-4.6-1.6-6.3-6.3-6.3H9z"/>
    <path d="M8.8,18.2c-0.1,0-0.2,0-0.2,0l-1.2-0.2C6.7,18,6,17.4,5.9,16.6l-0.2-1.2c-0.1-0.5,0.1-1.1,0.5-1.4l2.3-2.3
      c-0.3-1.6,0.2-3.3,1.3-4.5c1.9-1.9,5-1.9,6.9,0c0.9,0.9,1.4,2.2,1.4,3.5c0,1.3-0.5,2.5-1.4,3.5c0,0,0,0,0,0
      c-1.2,1.2-2.9,1.7-4.5,1.3L10,17.8C9.8,18.1,9.3,18.2,8.8,18.2z M13.3,7.3c-0.9,0-1.7,0.3-2.4,1c-0.9,0.9-1.2,2.2-0.8,3.4
      c0.1,0.3,0,0.6-0.2,0.8L7.3,15c0,0-0.1,0.1-0.1,0.2l0.2,1.2c0,0.1,0.1,0.2,0.2,0.2l1.2,0.2c0.1,0,0.2,0,0.2-0.1l2.6-2.6
      c0.2-0.2,0.5-0.3,0.8-0.2c1.2,0.4,2.5,0.1,3.4-0.8c0.6-0.6,1-1.5,1-2.4c0-0.9-0.4-1.8-1-2.4C15.1,7.6,14.2,7.3,13.3,7.3z
      M16.3,13.6L16.3,13.6L16.3,13.6z"/>
    <path d="M10.5,17c-0.2,0-0.4-0.1-0.5-0.2l-0.9-0.9c-0.3-0.3-0.3-0.8,0-1.1c0.3-0.3,0.8-0.3,1.1,0l0.9,0.9
      c0.3,0.3,0.3,0.8,0,1.1C10.8,17,10.6,17,10.5,17z"/>
    <path d="M13.4,11.7c-0.6,0-1-0.4-1-1s0.4-1,1-1h0c0.6,0,1,0.4,1,1S14,11.7,13.4,11.7z"/>
  </symbol>
  <symbol id="user" viewBox="0 0 24 24">
    <path d="M15,22.7H9c-1.3,0-2.4-0.1-3.4-0.4c-0.3-0.1-0.6-0.4-0.5-0.8c0.3-3,3.3-5.3,6.9-5.3c3.6,0,6.6,2.3,6.9,5.3
      c0,0.4-0.2,0.7-0.5,0.8C17.4,22.6,16.3,22.7,15,22.7z M6.7,21.1c0.7,0.1,1.4,0.2,2.3,0.2h6c0.9,0,1.6-0.1,2.3-0.2
      c-0.5-1.9-2.7-3.3-5.3-3.3C9.4,17.7,7.3,19.1,6.7,21.1z"/>
    <path d="M5.9,22.4c-0.1,0-0.1,0-0.2,0c-3-0.9-4.4-3.2-4.4-7.3V9c0-5.4,2.3-7.8,7.8-7.8h6c5.4,0,7.8,2.3,7.8,7.8v6
      c0,4.2-1.4,6.5-4.4,7.3c-0.2,0.1-0.4,0-0.6-0.1c-0.2-0.1-0.3-0.3-0.3-0.6c-0.2-2.2-2.6-4-5.4-4s-5.2,1.7-5.4,4
      c0,0.2-0.1,0.4-0.3,0.6C6.2,22.3,6,22.4,5.9,22.4z M12,16.2c3.2,0,6,1.9,6.7,4.4c1.8-0.8,2.5-2.6,2.5-5.6V9c0-4.6-1.6-6.3-6.3-6.3
      H9C4.4,2.7,2.8,4.4,2.8,9v6c0,3.1,0.8,4.8,2.5,5.6C6,18.1,8.8,16.2,12,16.2z M12,14.9c-2.4,0-4.3-1.9-4.3-4.3
      c0-2.4,1.9-4.3,4.3-4.3s4.3,1.9,4.3,4.3C16.3,13,14.4,14.9,12,14.9z M12,7.7c-1.6,0-2.8,1.3-2.8,2.8c0,1.6,1.3,2.8,2.8,2.8
      s2.8-1.3,2.8-2.8C14.8,9,13.6,7.7,12,7.7z"/>
    <path d="M12,14.9c-2.4,0-4.3-1.9-4.3-4.3c0-2.4,1.9-4.3,4.3-4.3c2.4,0,4.3,1.9,4.3,4.3C16.3,13,14.4,14.9,12,14.9z
      M12,7.7c-1.6,0-2.8,1.3-2.8,2.8c0,1.6,1.3,2.8,2.8,2.8s2.8-1.3,2.8-2.8C14.8,9,13.6,7.7,12,7.7z"/>
  </symbol>
  <symbol id="wallet" viewBox="0 0 24 24">
    <path d="M7.2,22.8c-2.4,0-4.3-1.7-4.3-3.9v-2c0-0.4,0.3-0.8,0.8-0.8s0.8,0.3,0.8,0.8c0,1.2,1.2,2.2,2.8,2.2
      c1.6,0,2.8-0.9,2.8-2.2c0-0.4,0.3-0.8,0.8-0.8s0.8,0.3,0.8,0.8v2C11.5,21,9.6,22.8,7.2,22.8z M4.6,19.9c0.4,0.8,1.4,1.4,2.6,1.4
      c1.1,0,2.1-0.6,2.6-1.4c-0.7,0.4-1.6,0.7-2.6,0.7C6.2,20.6,5.3,20.3,4.6,19.9z"/>
    <path d="M7.2,17.8c-1.6,0-3.1-0.7-3.8-1.9c-0.3-0.5-0.5-1.1-0.5-1.8c0-1,0.5-2,1.3-2.8c1.6-1.4,4.4-1.4,6,0
      c0.8,0.7,1.3,1.7,1.3,2.8c0,0.6-0.2,1.2-0.5,1.7C10.3,17.1,8.8,17.8,7.2,17.8z M7.2,11.8c-0.8,0-1.5,0.3-2,0.7
      c-0.5,0.4-0.8,1-0.8,1.6c0,0.3,0.1,0.7,0.3,1c0.5,0.7,1.4,1.2,2.6,1.2c1.1,0,2.1-0.5,2.6-1.2c0.2-0.3,0.3-0.6,0.3-1
      c0-0.6-0.3-1.2-0.8-1.6C8.7,12,7.9,11.8,7.2,11.8z"/>
    <path d="M7.2,20.6c-2.4,0-4.3-1.6-4.3-3.7v-2.8c0-2.1,1.9-3.9,4.3-3.9c1.1,0,2.2,0.4,3,1.1c0.8,0.7,1.3,1.7,1.3,2.8
      v2.8C11.5,19,9.6,20.6,7.2,20.6z M7.2,11.7c-1.6,0-2.8,1.1-2.8,2.4v2.8c0,1.2,1.2,2.2,2.8,2.2c1.6,0,2.8-0.9,2.8-2.2v-2.8
      c0-0.6-0.3-1.2-0.8-1.6C8.7,12,8,11.7,7.2,11.7z"/>
    <path d="M19,14.8c-1.5,0-2.8-1.1-2.9-2.6c-0.1-0.8,0.2-1.6,0.8-2.2c0.5-0.5,1.2-0.8,2-0.8H21c1,0,1.8,0.8,1.8,1.8V13
      c0,1-0.8,1.7-1.7,1.8L19,14.8z M21,10.7l-2.1,0c-0.3,0-0.7,0.1-0.9,0.4c-0.3,0.3-0.4,0.7-0.4,1c0.1,0.7,0.7,1.2,1.4,1.2h2
      c0.1,0,0.3-0.1,0.3-0.3V11C21.3,10.8,21.1,10.7,21,10.7z"/>
    <path d="M16,21.3h-2.5c-0.4,0-0.8-0.3-0.8-0.8s0.3-0.8,0.8-0.8H16c2.6,0,4.3-1.7,4.3-4.3v-0.7H19
      c-1.5,0-2.8-1.1-2.9-2.6c-0.1-0.8,0.2-1.6,0.8-2.2c0.5-0.5,1.2-0.8,2-0.8h1.3V8.5c0-2.3-1.4-3.9-3.6-4.2c-0.2,0-0.4,0-0.7,0H7
      c-0.2,0-0.5,0-0.7,0.1C4.1,4.6,2.8,6.2,2.8,8.5v2c0,0.4-0.3,0.8-0.8,0.8s-0.8-0.3-0.8-0.8v-2c0-3.1,1.9-5.3,4.8-5.7
      c0.3,0,0.6-0.1,0.9-0.1h9c0.4,0,0.6,0,0.9,0.1c2.9,0.3,4.9,2.6,4.9,5.7v1.5c0,0.4-0.3,0.8-0.8,0.8h-2.1c-0.3,0-0.7,0.1-0.9,0.4
      c-0.3,0.3-0.4,0.7-0.4,1c0.1,0.7,0.7,1.2,1.4,1.2h2c0.4,0,0.8,0.3,0.8,0.8v1.5C21.8,18.9,19.4,21.3,16,21.3z"/>
  </symbol>
  <symbol id="discount" viewBox="0 0 24 24">
    <path d="M12,22.8c-0.6,0-1.2-0.2-1.7-0.7l-1.5-1.5c-0.1-0.1-0.4-0.3-0.6-0.3H6.1c-1.3,0-2.4-1.1-2.4-2.4v-2.2
      c0-0.2-0.1-0.5-0.3-0.6l-1.5-1.5c-0.4-0.4-0.7-1-0.7-1.7c0-0.6,0.2-1.2,0.7-1.7l1.5-1.5c0.1-0.1,0.3-0.4,0.3-0.6V6.1
      c0-1.3,1.1-2.4,2.4-2.4h2.2c0.2,0,0.5-0.1,0.6-0.3l1.5-1.5c0.9-0.9,2.4-0.9,3.3,0l1.5,1.5c0.1,0.1,0.4,0.3,0.6,0.3h2.2
      c1.3,0,2.4,1.1,2.4,2.4v2.2c0,0.2,0.1,0.5,0.3,0.6l1.5,1.5c0.4,0.4,0.7,1,0.7,1.7c0,0.6-0.2,1.2-0.7,1.7l-1.5,1.5
      c-0.1,0.1-0.3,0.4-0.3,0.6v2.2c0,1.3-1.1,2.4-2.4,2.4h-2.2c-0.2,0-0.5,0.1-0.6,0.3l-1.5,1.5C13.2,22.5,12.6,22.8,12,22.8z M4.5,14.1
      c0.4,0.4,0.7,1.1,0.7,1.7v2.2c0,0.5,0.4,0.9,0.9,0.9h2.2c0.6,0,1.3,0.3,1.7,0.7l1.5,1.5c0.3,0.3,0.9,0.3,1.2,0l1.5-1.5
      c0.4-0.4,1.1-0.7,1.7-0.7h2.2c0.5,0,0.9-0.4,0.9-0.9v-2.2c0-0.6,0.3-1.3,0.7-1.7l1.5-1.5c0.2-0.2,0.3-0.4,0.3-0.6
      c0-0.2-0.1-0.4-0.3-0.6l-1.5-1.5c-0.4-0.4-0.7-1.1-0.7-1.7V6.1c0-0.5-0.4-0.9-0.9-0.9h-2.2c-0.6,0-1.3-0.3-1.7-0.7L12.6,3
      c-0.3-0.3-0.9-0.3-1.2,0L9.9,4.5C9.5,4.9,8.8,5.2,8.2,5.2H6.1c-0.5,0-0.9,0.4-0.9,0.9v2.2c0,0.6-0.3,1.3-0.7,1.7L3,11.4
      c-0.2,0.2-0.3,0.4-0.3,0.6c0,0.2,0.1,0.4,0.3,0.6L4.5,14.1z"/>
    <path d="M15,16c-0.6,0-1-0.4-1-1s0.4-1,1-1s1,0.4,1,1S15.6,16,15,16z"/>
    <path d="M9,10c-0.6,0-1-0.4-1-1s0.4-1,1-1s1,0.4,1,1S9.6,10,9,10z"/>
    <path d="M9,15.7c-0.2,0-0.4-0.1-0.5-0.2c-0.3-0.3-0.3-0.8,0-1.1l6-6c0.3-0.3,0.8-0.3,1.1,0s0.3,0.8,0,1.1l-6,6
      C9.4,15.7,9.2,15.7,9,15.7z"/>
  </symbol>
  <symbol id="question" viewBox="0 0 24 24">
    <path d="M8,22.3c-0.3,0-0.6-0.1-0.8-0.2c-0.6-0.3-0.9-0.9-0.9-1.5v-1.4c-3-0.3-5-2.5-5-5.7v-6C1.3,4,3.6,1.7,7,1.7h10
      c3.4,0,5.8,2.3,5.8,5.8v6c0,3.4-2.3,5.8-5.8,5.8h-3.8L9,22C8.7,22.2,8.3,22.3,8,22.3z M7,3.2c-2.6,0-4.3,1.7-4.3,4.3v6
      c0,2.6,1.7,4.3,4.3,4.3c0.4,0,0.8,0.3,0.8,0.8v2.1c0,0.1,0.1,0.2,0.1,0.2c0.1,0,0.2,0.1,0.3,0l4.4-3c0.1-0.1,0.3-0.1,0.4-0.1h4
      c2.6,0,4.3-1.7,4.3-4.3v-6c0-2.6-1.7-4.3-4.3-4.3H7z"/>
    <path d="M12,12.1c-0.4,0-0.8-0.3-0.8-0.8v-0.2c0-1.2,0.9-1.7,1.2-2c0.4-0.3,0.5-0.4,0.5-0.7c0-0.5-0.4-0.9-0.9-0.9
      S11.1,8,11.1,8.5c0,0.4-0.3,0.8-0.8,0.8c-0.4,0-0.7-0.3-0.7-0.8c0-1.3,1.1-2.4,2.4-2.4s2.4,1.1,2.4,2.4c0,1.1-0.8,1.7-1.1,1.9
      c-0.4,0.3-0.5,0.4-0.5,0.7v0.2C12.7,11.8,12.4,12.1,12,12.1z"/>
    <path d="M12,14.6c-0.4,0-0.8-0.3-0.8-0.8c0-0.4,0.3-0.8,0.8-0.8s0.8,0.3,0.8,0.8C12.8,14.3,12.4,14.6,12,14.6z"/>
  </symbol>
  <symbol id="arrow-right" viewBox="0 0 6 10">
    <path d="M1,10c-0.3,0-0.5-0.1-0.7-0.3c-0.4-0.4-0.4-1,0-1.4L3.6,5L0.3,1.7c-0.4-0.4-0.4-1,0-1.4s1-0.4,1.4,0l4,4
		c0.4,0.4,0.4,1,0,1.4l-4,4C1.5,9.9,1.3,10,1,10z"/>
  </symbol>
  <symbol id="search" viewBox="0 0 24 24">
    <path d="M11,20c-5,0-9-4-9-9s4-9,9-9c5,0,9,4,9,9S16,20,11,20z M11,4c-3.9,0-7,3.1-7,7s3.1,7,7,7c3.9,0,7-3.1,7-7
      S14.9,4,11,4z"/>
    <path d="M21,22c-0.3,0-0.5-0.1-0.7-0.3l-4.3-4.4c-0.4-0.4-0.4-1,0-1.4c0.4-0.4,1-0.4,1.4,0l4.3,4.4
      c0.4,0.4,0.4,1,0,1.4C21.5,21.9,21.3,22,21,22z"/>
  </symbol>
</svg>
